<svg version="1.1" id="Layer_1" xmlns="http://www.w3.org/2000/svg" xmlns:xlink="http://www.w3.org/1999/xlink" x="0px" y="0px"
	 width="361.864px" height="96.506px" viewBox="0 0 361.864 96.506" enable-background="new 0 0 361.864 96.506"
	 xml:space="preserve">
<g>
	<path d="M20.283,2.196v75.19h44.959v17.053H0V2.196H20.283z"/>
	<path d="M75.705,29.521c2.067-5.898,5.039-11.046,8.915-15.438c3.875-4.393,8.633-7.836,14.275-10.335
		C104.535,1.25,110.888,0,117.951,0c7.147,0,13.521,1.25,19.12,3.747c5.598,2.499,10.336,5.943,14.211,10.335
		c3.876,4.393,6.848,9.54,8.915,15.438c2.066,5.9,3.101,12.295,3.101,19.185c0,6.718-1.034,12.984-3.101,18.797
		c-2.067,5.813-5.039,10.875-8.915,15.18c-3.875,4.308-8.613,7.687-14.211,10.142c-5.6,2.455-11.973,3.682-19.12,3.682
		c-7.063,0-13.416-1.227-19.056-3.682c-5.642-2.455-10.4-5.834-14.275-10.142c-3.876-4.306-6.847-9.367-8.915-15.18
		c-2.067-5.813-3.101-12.08-3.101-18.797C72.605,41.816,73.638,35.421,75.705,29.521z M94.244,60.01
		c0.904,3.662,2.346,6.956,4.328,9.883c1.98,2.929,4.564,5.276,7.751,7.041c3.186,1.766,7.061,2.648,11.627,2.648
		c4.564,0,8.439-0.882,11.627-2.648c3.186-1.765,5.77-4.112,7.752-7.041c1.98-2.927,3.424-6.222,4.328-9.883
		c0.904-3.66,1.356-7.429,1.356-11.304c0-4.047-0.452-7.966-1.356-11.756c-0.904-3.789-2.348-7.17-4.328-10.142
		c-1.982-2.972-4.566-5.339-7.752-7.106c-3.188-1.764-7.062-2.648-11.627-2.648c-4.566,0-8.442,0.884-11.627,2.648
		c-3.188,1.767-5.771,4.134-7.751,7.106c-1.982,2.971-3.424,6.353-4.328,10.142c-0.904,3.791-1.356,7.709-1.356,11.756
		C92.888,52.581,93.34,56.35,94.244,60.01z"/>
	<path d="M231.77,93.729c-4.393,1.851-8.829,2.777-13.307,2.777c-7.063,0-13.416-1.227-19.056-3.682
		c-5.643-2.455-10.4-5.834-14.276-10.142c-3.875-4.306-6.847-9.367-8.914-15.18s-3.101-12.08-3.101-18.797
		c0-6.89,1.033-13.285,3.101-19.185c2.067-5.898,5.039-11.046,8.914-15.438c3.876-4.393,8.634-7.836,14.276-10.335
		C205.047,1.25,211.4,0,218.463,0c4.735,0,9.322,0.71,13.759,2.132c4.435,1.421,8.439,3.51,12.015,6.266
		c3.573,2.757,6.524,6.159,8.85,10.206c2.326,4.049,3.747,8.701,4.264,13.953h-19.379c-1.207-5.168-3.532-9.043-6.977-11.627
		c-3.445-2.584-7.622-3.876-12.531-3.876c-4.566,0-8.442,0.884-11.627,2.648c-3.188,1.767-5.771,4.134-7.752,7.106
		c-1.982,2.971-3.424,6.353-4.328,10.142c-0.904,3.791-1.356,7.709-1.356,11.756c0,3.875,0.452,7.645,1.356,11.304
		c0.904,3.662,2.346,6.956,4.328,9.883c1.98,2.929,4.564,5.276,7.752,7.041c3.185,1.766,7.061,2.648,11.627,2.648
		c6.718,0,11.905-1.7,15.567-5.103c3.66-3.401,5.792-8.333,6.396-14.792h-20.413V44.571h38.758v49.868h-12.919l-2.067-10.464
		C240.167,88.626,236.162,91.878,231.77,93.729z"/>
	<path d="M274.272,29.521c2.067-5.898,5.039-11.046,8.914-15.438c3.876-4.393,8.634-7.836,14.276-10.335
		C303.102,1.25,309.454,0,316.518,0c7.147,0,13.521,1.25,19.12,3.747c5.598,2.499,10.336,5.943,14.211,10.335
		c3.876,4.393,6.848,9.54,8.915,15.438c2.066,5.9,3.101,12.295,3.101,19.185c0,6.718-1.034,12.984-3.101,18.797
		c-2.067,5.813-5.039,10.875-8.915,15.18c-3.875,4.308-8.613,7.687-14.211,10.142c-5.6,2.455-11.973,3.682-19.12,3.682
		c-7.063,0-13.416-1.227-19.056-3.682c-5.643-2.455-10.4-5.834-14.276-10.142c-3.875-4.306-6.847-9.367-8.914-15.18
		s-3.101-12.08-3.101-18.797C271.171,41.816,272.204,35.421,274.272,29.521z M292.811,60.01c0.904,3.662,2.346,6.956,4.328,9.883
		c1.98,2.929,4.564,5.276,7.752,7.041c3.185,1.766,7.061,2.648,11.627,2.648c4.564,0,8.439-0.882,11.627-2.648
		c3.186-1.765,5.77-4.112,7.752-7.041c1.98-2.927,3.424-6.222,4.328-9.883c0.904-3.66,1.356-7.429,1.356-11.304
		c0-4.047-0.452-7.966-1.356-11.756c-0.904-3.789-2.348-7.17-4.328-10.142c-1.982-2.972-4.566-5.339-7.752-7.106
		c-3.188-1.764-7.062-2.648-11.627-2.648c-4.566,0-8.442,0.884-11.627,2.648c-3.188,1.767-5.771,4.134-7.752,7.106
		c-1.982,2.971-3.424,6.353-4.328,10.142c-0.904,3.791-1.356,7.709-1.356,11.756C291.454,52.581,291.906,56.35,292.811,60.01z"/>
</g>
</svg>
